<svg id="Layer_1" data-name="Layer 1" xmlns="http://www.w3.org/2000/svg" viewBox="0 0 2533.4949 680.8244">
  <defs>
    <style>
      .cls-1 {
        fill: #fff;
      }
    </style>
  </defs>
  <title>logo-white-full</title>
  <path class="cls-1" d="M-241.2452,596.5875a51.9669,51.9669,0,0,0-51.8438-51.9656v-0.0032H-257.71c-0.0407,0-.08-0.0059-0.1207-0.0059H-988.4719c-0.0408,0-.08.0056-0.1207,0.0059h35.8161v0.011c-0.1464-.0012-0.2908-0.011-0.4375-0.011a51.9688,51.9688,0,0,0-51.9687,51.9688c0,1.0652.0421,2.12,0.1053,3.17v454.1608c-0.0632,1.0493-.1053,2.1044-0.1053,3.17a51.9687,51.9687,0,0,0,51.9687,51.9688c0.1467,0,.2911-0.01.4375-0.011v0.1536h313.02V890.98a66.2722,66.2722,0,0,1-49.8165-64.0738,66.4207,66.4207,0,0,1,66.4219-66.422,66.4207,66.4207,0,0,1,66.4219,66.422A66.2722,66.2722,0,0,1-606.5461,890.98v317.8519a16.5623,16.5623,0,0,0,10.2954,15.2771,14.3922,14.3922,0,0,0,6.31,1.3285,15.5782,15.5782,0,0,0,11.6238-4.9817l111.5887-111.2567h173.639v-0.052a51.9668,51.9668,0,0,0,51.8438-51.9656c0-.0839-0.006-0.1663-0.0063-0.25h0.0259v-460h-0.0283C-241.2531,596.816-241.2452,596.7028-241.2452,596.5875ZM-717.0919,920.83a16.6029,16.6029,0,0,1,0,23.4835,16.56,16.56,0,0,1-11.74,4.8621,16.5482,16.5482,0,0,1-11.74-4.8621,165.0263,165.0263,0,0,1-48.6342-117.4073A165.0264,165.0264,0,0,1-740.572,709.4984a16.5989,16.5989,0,0,1,23.48,0,16.603,16.603,0,0,1,0,23.4835,132.0338,132.0338,0,0,0-38.9033,93.9239A132.0338,132.0338,0,0,0-717.0919,920.83Zm211.3611,23.4835a16.5484,16.5484,0,0,1-11.74,4.8621,16.5594,16.5594,0,0,1-11.74-4.8621,16.6028,16.6028,0,0,1,0-23.4835,132.034,132.034,0,0,0,38.9033-93.9238,132.034,132.034,0,0,0-38.9033-93.9239,16.6029,16.6029,0,0,1,0-23.4835,16.5989,16.5989,0,0,1,23.48,0,165.0266,165.0266,0,0,1,48.6341,117.4074A165.0265,165.0265,0,0,1-505.7308,944.3131ZM724.6807,824.3091c24.05-5.18,42.1794-25.9,42.1794-56.6093,0-28.86-22.2-62.8991-73.259-62.8991H543.7531V951.5874h155.028c49.5793,0,72.889-32.56,72.889-66.9691C771.67,852.7987,751.32,828.379,724.6807,824.3091ZM618.4921,766.96h57.7192c7.77,0,14.8,5.55,14.8,14.06a14.6037,14.6037,0,0,1-14.8,14.8H618.4921V766.96Zm59.9392,122.4684H618.4921v-31.45h59.9392c10.73,0,17.39,7.03,17.39,15.91C695.821,883.1383,689.1611,889.4282,678.4313,889.4282Zm331.886-65.1191c24.05-5.18,42.18-25.9,42.18-56.6093,0-28.86-22.2-62.8991-73.2591-62.8991H829.39V951.5874h155.028c49.5793,0,72.889-32.56,72.889-66.9691C1057.3068,852.7987,1036.957,828.379,1010.3173,824.3091ZM904.1287,766.96H961.848c7.77,0,14.8,5.55,14.8,14.06a14.6037,14.6037,0,0,1-14.8,14.8H904.1287V766.96Zm59.9392,122.4684H904.1287v-31.45h59.9392c10.73,0,17.39,7.03,17.39,15.91C981.4578,883.1383,974.7979,889.4282,964.0679,889.4282ZM148.5972,824.3091c24.05-5.18,42.1794-25.9,42.1794-56.6093,0-28.86-22.2-62.8991-73.259-62.8991H-32.33V951.5874h155.028c49.5793,0,72.889-32.56,72.889-66.9691C195.5865,852.7987,175.2368,828.379,148.5972,824.3091ZM42.4086,766.96h57.7192c7.77,0,14.8,5.55,14.8,14.06a14.6037,14.6037,0,0,1-14.8,14.8H42.4086V766.96Zm59.9392,122.4684H42.4086v-31.45h59.9392c10.73,0,17.39,7.03,17.39,15.91C119.7375,883.1383,113.0776,889.4282,102.3478,889.4282ZM1189.7654,704.8007h-74.739V951.5874h168.3478V886.4683h-93.6088V704.8007Zm-872.08,0L226.6666,951.5874h84.7288l8.88-28.86h88.7988l8.88,28.86h84.7289L411.6641,704.8007H317.6854Zm22.57,152.8079,24.42-79.5489,24.42,79.5489H340.2551ZM1528.3123,769.92V704.8007H1341.0947V951.5874h187.2175V886.4683H1415.8337v-27.01h109.8887V794.34H1415.8337V769.92h112.4785Z" transform="translate(1005.1826 -544.6127)"/>
</svg>
